PathFileType	4	(X/Y/Z)	C:\Users\italobelli\Desktop\GitHub\PTbot_officialCBL\Personal_Results\SHRUG01_noisy1.trc
DataRate	CameraRate	NumFrames	NumMarkers	Units	OrigDataRate	OrigDataStartFrame	OrigNumFrames
110.888889	110.888889	46	9	m	110.888889	313	500
Frame#	Time		gu		centelbow		EpL		centpxt8		centijc7		ij		ts		aa		ai
			X1	Y1	Z1	X2	Y2	Z2	X3	Y3	Z3	X4	Y4	Z4	X5	Y5	Z5	X6	Y6	Z6	X7	Y7	Z7	X8	Y8	Z8	X9	Y9	Z9

313	2.8136	-0.079051	-0.014313	0.16616	-0.10148	-0.25486	0.19859	-0.078363	-0.25021	0.2205	-0.046816	-0.15316	-0.008669	-0.046816	0.031938	-0.008669	0	0	0	-0.13934	0.029556	0.055672	-0.1063	0.024677	0.17014	-0.16283	-0.081232	0.062943
314	2.8226	-0.079007	-0.014328	0.16609	-0.10152	-0.25485	0.19845	-0.078432	-0.25021	0.2204	-0.046816	-0.15316	-0.008669	-0.046816	0.031938	-0.008669	0	0	0	-0.13931	0.029553	0.055599	-0.10629	0.024653	0.17008	-0.16281	-0.081235	0.062867
315	2.8317	-0.078965	-0.014343	0.16602	-0.10157	-0.25483	0.19833	-0.0785	-0.2502	0.2203	-0.046816	-0.15316	-0.008669	-0.046816	0.031938	-0.008669	0	0	0	-0.13927	0.02955	0.055527	-0.10628	0.024631	0.17001	-0.16279	-0.081238	0.062792
316	2.8407	-0.078924	-0.014355	0.16595	-0.10161	-0.25481	0.1982	-0.078567	-0.25018	0.2202	-0.046816	-0.15316	-0.008669	-0.046816	0.031938	-0.008669	0	0	0	-0.13924	0.029549	0.055456	-0.10627	0.02461	0.16995	-0.16277	-0.08124	0.06272
317	2.8497	-0.078886	-0.014367	0.16588	-0.10166	-0.25478	0.19808	-0.078633	-0.25016	0.2201	-0.046816	-0.15316	-0.008669	-0.046816	0.031938	-0.008669	0	0	0	-0.13921	0.029547	0.055387	-0.10626	0.024592	0.16988	-0.16275	-0.081241	0.062651
318	2.8587	-0.07885	-0.014378	0.16581	-0.1017	-0.25475	0.19796	-0.078698	-0.25014	0.22001	-0.046816	-0.15316	-0.008669	-0.046816	0.031938	-0.008669	0	0	0	-0.13918	0.029547	0.055319	-0.10625	0.024576	0.16982	-0.16273	-0.081241	0.062583
319	2.8677	-0.078817	-0.014387	0.16575	-0.10174	-0.25472	0.19784	-0.078761	-0.25012	0.21992	-0.046816	-0.15316	-0.008669	-0.046816	0.031938	-0.008669	0	0	0	-0.13915	0.029548	0.055253	-0.10625	0.024561	0.16976	-0.16271	-0.08124	0.062518
320	2.8768	-0.078786	-0.014394	0.16569	-0.10178	-0.25468	0.19773	-0.078824	-0.25008	0.21984	-0.046816	-0.15316	-0.008669	-0.046816	0.031938	-0.008669	0	0	0	-0.13912	0.029549	0.055189	-0.10624	0.024549	0.16971	-0.1627	-0.081238	0.062456
321	2.8858	-0.078759	-0.014401	0.16563	-0.10183	-0.25464	0.19762	-0.078886	-0.25005	0.21975	-0.046816	-0.15316	-0.008669	-0.046816	0.031938	-0.008669	0	0	0	-0.1391	0.029551	0.055128	-0.10624	0.024539	0.16965	-0.16268	-0.081235	0.062396
322	2.8948	-0.078735	-0.014406	0.16557	-0.10187	-0.2546	0.19752	-0.078947	-0.25001	0.21967	-0.046816	-0.15316	-0.008669	-0.046816	0.031938	-0.008669	0	0	0	-0.13907	0.029554	0.055069	-0.10624	0.024531	0.1696	-0.16267	-0.081232	0.062338
323	2.9038	-0.078714	-0.01441	0.16552	-0.10191	-0.25455	0.19742	-0.079006	-0.24997	0.2196	-0.046816	-0.15316	-0.008669	-0.046816	0.031938	-0.008669	0	0	0	-0.13905	0.029558	0.055012	-0.10624	0.024525	0.16955	-0.16266	-0.081228	0.062284
324	2.9128	-0.078698	-0.014413	0.16547	-0.10195	-0.2545	0.19732	-0.079065	-0.24992	0.21952	-0.046816	-0.15316	-0.008669	-0.046816	0.031938	-0.008669	0	0	0	-0.13903	0.029563	0.054958	-0.10625	0.024521	0.1695	-0.16265	-0.081222	0.062232
325	2.9218	-0.078685	-0.014414	0.16542	-0.10199	-0.25445	0.19723	-0.079123	-0.24987	0.21945	-0.046816	-0.15316	-0.008669	-0.046816	0.031938	-0.008669	0	0	0	-0.13901	0.029568	0.054907	-0.10625	0.024519	0.16946	-0.16264	-0.081216	0.062182
326	2.9309	-0.078676	-0.014414	0.16538	-0.10203	-0.25439	0.19714	-0.079179	-0.24982	0.21938	-0.046816	-0.15316	-0.008669	-0.046816	0.031938	-0.008669	0	0	0	-0.139	0.029575	0.054859	-0.10626	0.024519	0.16942	-0.16263	-0.081209	0.062135
327	2.9399	-0.078672	-0.014413	0.16534	-0.10207	-0.25433	0.19706	-0.079235	-0.24976	0.21932	-0.046816	-0.15316	-0.008669	-0.046816	0.031938	-0.008669	0	0	0	-0.13898	0.029582	0.054814	-0.10627	0.024522	0.16938	-0.16263	-0.081201	0.062091
328	2.9489	-0.078672	-0.01441	0.1653	-0.10211	-0.25427	0.19698	-0.07929	-0.2497	0.21926	-0.046816	-0.15316	-0.008669	-0.046816	0.031938	-0.008669	0	0	0	-0.13897	0.02959	0.054773	-0.10628	0.024526	0.16935	-0.16263	-0.081192	0.06205
329	2.9579	-0.078677	-0.014406	0.16527	-0.10215	-0.2542	0.1969	-0.079343	-0.24963	0.2192	-0.046816	-0.15316	-0.008669	-0.046816	0.031938	-0.008669	0	0	0	-0.13897	0.029599	0.054735	-0.1063	0.024533	0.16932	-0.16263	-0.081182	0.062012
330	2.9669	-0.078688	-0.0144	0.16524	-0.10219	-0.25413	0.19683	-0.079396	-0.24956	0.21914	-0.046816	-0.15316	-0.008669	-0.046816	0.031938	-0.008669	0	0	0	-0.13896	0.029609	0.0547	-0.10632	0.024543	0.16929	-0.16263	-0.081171	0.061977
331	2.976	-0.078703	-0.014393	0.16521	-0.10223	-0.25406	0.19676	-0.079448	-0.24949	0.21909	-0.046816	-0.15316	-0.008669	-0.046816	0.031938	-0.008669	0	0	0	-0.13896	0.02962	0.05467	-0.10634	0.024554	0.16927	-0.16264	-0.081159	0.061945
332	2.985	-0.078725	-0.014385	0.16519	-0.10227	-0.25398	0.1967	-0.079499	-0.24941	0.21904	-0.046816	-0.15316	-0.008669	-0.046816	0.031938	-0.008669	0	0	0	-0.13896	0.029632	0.054644	-0.10636	0.024568	0.16925	-0.16264	-0.081147	0.061916
333	2.994	-0.078752	-0.014375	0.16518	-0.10231	-0.2539	0.19664	-0.079548	-0.24933	0.219	-0.046816	-0.15316	-0.008669	-0.046816	0.031938	-0.008669	0	0	0	-0.13897	0.029645	0.054621	-0.10639	0.024584	0.16924	-0.16265	-0.081133	0.06189
334	3.003	-0.078784	-0.014364	0.16517	-0.10235	-0.25382	0.19658	-0.079597	-0.24924	0.21896	-0.046816	-0.15316	-0.008669	-0.046816	0.031938	-0.008669	0	0	0	-0.13897	0.029659	0.054603	-0.10642	0.024602	0.16923	-0.16266	-0.081118	0.061867
335	3.012	-0.07882	-0.014353	0.16516	-0.10239	-0.25374	0.19653	-0.079646	-0.24915	0.21892	-0.046816	-0.15316	-0.008669	-0.046816	0.031938	-0.008669	0	0	0	-0.13898	0.029673	0.054586	-0.10645	0.024621	0.16922	-0.16268	-0.081102	0.061844
336	3.021	-0.078857	-0.014342	0.16515	-0.10244	-0.25364	0.19648	-0.079695	-0.24906	0.21887	-0.046816	-0.15316	-0.008669	-0.046816	0.031938	-0.008669	0	0	0	-0.13899	0.029688	0.054569	-0.10648	0.024641	0.16921	-0.16269	-0.081086	0.061822
337	3.0301	-0.078896	-0.014331	0.16514	-0.10248	-0.25355	0.19643	-0.079744	-0.24896	0.21883	-0.046816	-0.15316	-0.008669	-0.046816	0.031938	-0.008669	0	0	0	-0.139	0.029704	0.054551	-0.10652	0.02466	0.1692	-0.1627	-0.08107	0.061799
338	3.0391	-0.078936	-0.01432	0.16513	-0.10252	-0.25345	0.19638	-0.079793	-0.24885	0.21879	-0.046816	-0.15316	-0.008669	-0.046816	0.031938	-0.008669	0	0	0	-0.13901	0.02972	0.054533	-0.10655	0.02468	0.16919	-0.16272	-0.081052	0.061776
339	3.0481	-0.078978	-0.014309	0.16512	-0.10256	-0.25335	0.19633	-0.079842	-0.24875	0.21876	-0.046816	-0.15316	-0.008669	-0.046816	0.031938	-0.008669	0	0	0	-0.13902	0.029736	0.054515	-0.10659	0.0247	0.16918	-0.16273	-0.081034	0.061754
340	3.0571	-0.079021	-0.014298	0.16511	-0.1026	-0.25324	0.19628	-0.079892	-0.24864	0.21872	-0.046816	-0.15316	-0.008669	-0.046816	0.031938	-0.008669	0	0	0	-0.13903	0.029753	0.054497	-0.10662	0.02472	0.16917	-0.16274	-0.081016	0.061732
341	3.0661	-0.079066	-0.014287	0.1651	-0.10264	-0.25314	0.19623	-0.079941	-0.24852	0.21868	-0.046816	-0.15316	-0.008669	-0.046816	0.031938	-0.008669	0	0	0	-0.13904	0.029771	0.054479	-0.10666	0.024741	0.16916	-0.16276	-0.080997	0.061709
342	3.0752	-0.079112	-0.014276	0.16509	-0.10269	-0.25303	0.19618	-0.079991	-0.24841	0.21864	-0.046816	-0.15316	-0.008669	-0.046816	0.031938	-0.008669	0	0	0	-0.13905	0.029789	0.054461	-0.10669	0.024761	0.16915	-0.16277	-0.080978	0.061687
343	3.0842	-0.079159	-0.014266	0.16508	-0.10273	-0.25291	0.19614	-0.08004	-0.24829	0.2186	-0.046816	-0.15316	-0.008669	-0.046816	0.031938	-0.008669	0	0	0	-0.13906	0.029807	0.054443	-0.10673	0.024782	0.16915	-0.16278	-0.080959	0.061665
344	3.0932	-0.079207	-0.014255	0.16507	-0.10277	-0.2528	0.19609	-0.080089	-0.24817	0.21857	-0.046816	-0.15316	-0.008669	-0.046816	0.031938	-0.008669	0	0	0	-0.13906	0.029825	0.054424	-0.10677	0.024803	0.16914	-0.1628	-0.080939	0.061642
345	3.1022	-0.079257	-0.014244	0.16506	-0.10281	-0.25268	0.19605	-0.080139	-0.24805	0.21853	-0.046816	-0.15316	-0.008669	-0.046816	0.031938	-0.008669	0	0	0	-0.13907	0.029844	0.054406	-0.1068	0.024824	0.16913	-0.16281	-0.080919	0.061621
346	3.1112	-0.079307	-0.014234	0.16505	-0.10286	-0.25256	0.19601	-0.080188	-0.24792	0.2185	-0.046816	-0.15316	-0.008669	-0.046816	0.031938	-0.008669	0	0	0	-0.13908	0.029863	0.054387	-0.10684	0.024845	0.16912	-0.16283	-0.080898	0.061599
347	3.1202	-0.079359	-0.014223	0.16505	-0.1029	-0.25244	0.19597	-0.080237	-0.24779	0.21846	-0.046816	-0.15316	-0.008669	-0.046816	0.031938	-0.008669	0	0	0	-0.13909	0.029883	0.054369	-0.10688	0.024866	0.16911	-0.16284	-0.080878	0.061577
348	3.1293	-0.079411	-0.014213	0.16504	-0.10294	-0.25232	0.19593	-0.080286	-0.24766	0.21843	-0.046816	-0.15316	-0.008669	-0.046816	0.031938	-0.008669	0	0	0	-0.1391	0.029902	0.05435	-0.10692	0.024888	0.1691	-0.16285	-0.080857	0.061556
349	3.1383	-0.079464	-0.014202	0.16503	-0.10299	-0.25219	0.19589	-0.080335	-0.24753	0.2184	-0.046816	-0.15316	-0.008669	-0.046816	0.031938	-0.008669	0	0	0	-0.13911	0.029922	0.054332	-0.10696	0.024909	0.16909	-0.16287	-0.080836	0.061534
350	3.1473	-0.079518	-0.014191	0.16502	-0.10303	-0.25207	0.19585	-0.080384	-0.2474	0.21837	-0.046816	-0.15316	-0.008669	-0.046816	0.031938	-0.008669	0	0	0	-0.13913	0.029942	0.054313	-0.107	0.024931	0.16908	-0.16288	-0.080814	0.061514
351	3.1563	-0.079572	-0.014181	0.16501	-0.10307	-0.25194	0.19582	-0.080432	-0.24727	0.21834	-0.046816	-0.15316	-0.008669	-0.046816	0.031938	-0.008669	0	0	0	-0.13914	0.029962	0.054295	-0.10704	0.024953	0.16907	-0.1629	-0.080793	0.061493
352	3.1653	-0.079628	-0.01417	0.16501	-0.10311	-0.25182	0.19578	-0.080481	-0.24714	0.21831	-0.046816	-0.15316	-0.008669	-0.046816	0.031938	-0.008669	0	0	0	-0.13915	0.029982	0.054277	-0.10708	0.024974	0.16906	-0.16291	-0.080772	0.061472
353	3.1743	-0.079683	-0.01416	0.165	-0.10316	-0.25169	0.19575	-0.080529	-0.247	0.21828	-0.046816	-0.15316	-0.008669	-0.046816	0.031938	-0.008669	0	0	0	-0.13916	0.030002	0.054259	-0.10712	0.024996	0.16905	-0.16293	-0.08075	0.061452
354	3.1834	-0.079739	-0.014149	0.16499	-0.1032	-0.25156	0.19572	-0.080577	-0.24687	0.21825	-0.046816	-0.15316	-0.008669	-0.046816	0.031938	-0.008669	0	0	0	-0.13917	0.030022	0.054241	-0.10716	0.025018	0.16904	-0.16294	-0.080729	0.061433
355	3.1924	-0.079796	-0.014138	0.16498	-0.10324	-0.25143	0.19569	-0.080624	-0.24673	0.21823	-0.046816	-0.15316	-0.008669	-0.046816	0.031938	-0.008669	0	0	0	-0.13918	0.030042	0.054223	-0.1072	0.02504	0.16903	-0.16296	-0.080707	0.061413
356	3.2014	-0.079853	-0.014127	0.16498	-0.10328	-0.25131	0.19566	-0.080671	-0.2466	0.2182	-0.046816	-0.15316	-0.008669	-0.046816	0.031938	-0.008669	0	0	0	-0.13919	0.030062	0.054205	-0.10724	0.025061	0.16902	-0.16297	-0.080686	0.061394
357	3.2104	-0.07991	-0.014117	0.16497	-0.10333	-0.25118	0.19563	-0.080718	-0.24646	0.21818	-0.046816	-0.15316	-0.008669	-0.046816	0.031938	-0.008669	0	0	0	-0.1392	0.030082	0.054188	-0.10728	0.025083	0.16901	-0.16299	-0.080665	0.061375
358	3.2194	-0.079968	-0.014106	0.16496	-0.10337	-0.25105	0.19561	-0.080765	-0.24633	0.21816	-0.046816	-0.15316	-0.008669	-0.046816	0.031938	-0.008669	0	0	0	-0.13921	0.030101	0.05417	-0.10732	0.025105	0.169	-0.163	-0.080644	0.061357
